<mxfile host="app.diagrams.net" agent="Mozilla/5.0 (X11; Linux x86_64) AppleWebKit/537.36 (KHTML, like Gecko) Chrome/110.0.0.0 Safari/537.36" version="26.2.5">
  <diagram name="PÃ¡gina-1" id="VAco-CzIOMwVjFxxqdRi">
    <mxGraphModel dx="1062" dy="625" grid="1" gridSize="15" guides="1" tooltips="1" connect="1" arrows="1" fold="1" page="1" pageScale="1" pageWidth="413" pageHeight="583" background="#ffffff" math="0" shadow="0">
      <root>
        <mxCell id="0" />
        <mxCell id="1" parent="0" />
        <mxCell id="ecktCkfYGFVtR8qOr3f--1" value="Pessoa" style="swimlane;fontStyle=1;align=center;verticalAlign=top;childLayout=stackLayout;horizontal=1;startSize=26;horizontalStack=0;resizeParent=1;resizeParentMax=0;resizeLast=0;collapsible=1;marginBottom=0;whiteSpace=wrap;html=1;fillColor=#e1d5e7;strokeColor=#9673a6;strokeWidth=2;perimeterSpacing=0;rounded=1;shadow=0;glass=0;swimlaneLine=0;" vertex="1" parent="1">
          <mxGeometry x="30" y="70" width="160" height="70" as="geometry">
            <mxRectangle x="330" y="370" width="80" height="30" as="alternateBounds" />
          </mxGeometry>
        </mxCell>
        <mxCell id="ecktCkfYGFVtR8qOr3f--2" value="&lt;div&gt;nome -&amp;gt; str&lt;/div&gt;&lt;div&gt;&lt;span style=&quot;background-color: transparent;&quot;&gt;telefone&amp;nbsp; -&amp;gt; str&lt;/span&gt;&lt;/div&gt;" style="text;strokeColor=none;fillColor=none;align=left;verticalAlign=top;spacingLeft=4;spacingRight=4;overflow=hidden;rotatable=0;points=[[0,0.5],[1,0.5]];portConstraint=eastwest;whiteSpace=wrap;html=1;" vertex="1" parent="ecktCkfYGFVtR8qOr3f--1">
          <mxGeometry y="26" width="160" height="44" as="geometry" />
        </mxCell>
        <mxCell id="ecktCkfYGFVtR8qOr3f--15" value="Projeto 0" style="shape=umlFrame;whiteSpace=wrap;html=1;pointerEvents=0;swimlaneFillColor=none;fillColor=#f8cecc;strokeColor=#b85450;strokeWidth=2;width=76;height=30;" vertex="1" parent="1">
          <mxGeometry x="14" y="15" width="391" height="555" as="geometry" />
        </mxCell>
        <mxCell id="ecktCkfYGFVtR8qOr3f--24" value="Agenda" style="swimlane;fontStyle=1;align=center;verticalAlign=top;childLayout=stackLayout;horizontal=1;startSize=26;horizontalStack=0;resizeParent=1;resizeParentMax=0;resizeLast=0;collapsible=1;marginBottom=0;whiteSpace=wrap;html=1;rounded=1;strokeWidth=2;fillColor=#fff2cc;strokeColor=#d6b656;" vertex="1" parent="1">
          <mxGeometry x="30" y="180" width="160" height="165" as="geometry" />
        </mxCell>
        <mxCell id="ecktCkfYGFVtR8qOr3f--25" value="contatos -&amp;gt; [Pessoa]" style="text;strokeColor=none;fillColor=none;align=left;verticalAlign=top;spacingLeft=4;spacingRight=4;overflow=hidden;rotatable=0;points=[[0,0.5],[1,0.5]];portConstraint=eastwest;whiteSpace=wrap;html=1;" vertex="1" parent="ecktCkfYGFVtR8qOr3f--24">
          <mxGeometry y="26" width="160" height="26" as="geometry" />
        </mxCell>
        <mxCell id="ecktCkfYGFVtR8qOr3f--26" value="" style="line;strokeWidth=2;fillColor=none;align=left;verticalAlign=middle;spacingTop=-1;spacingLeft=3;spacingRight=3;rotatable=0;labelPosition=right;points=[];portConstraint=eastwest;strokeColor=inherit;" vertex="1" parent="ecktCkfYGFVtR8qOr3f--24">
          <mxGeometry y="52" width="160" height="8" as="geometry" />
        </mxCell>
        <mxCell id="ecktCkfYGFVtR8qOr3f--27" value="criar()&lt;div&gt;listar()&lt;/div&gt;&lt;div&gt;editar(nome -&amp;gt; str)&lt;/div&gt;&lt;div&gt;remover(nome -&amp;gt; str)&lt;/div&gt;&lt;div&gt;sair()&lt;/div&gt;&lt;div&gt;loop()&lt;/div&gt;" style="text;strokeColor=none;fillColor=none;align=left;verticalAlign=top;spacingLeft=4;spacingRight=4;overflow=hidden;rotatable=0;points=[[0,0.5],[1,0.5]];portConstraint=eastwest;whiteSpace=wrap;html=1;" vertex="1" parent="ecktCkfYGFVtR8qOr3f--24">
          <mxGeometry y="60" width="160" height="105" as="geometry" />
        </mxCell>
      </root>
    </mxGraphModel>
  </diagram>
</mxfile>
